<svg width="86" height="22" viewBox="0 0 86 22" fill="none" xmlns="http://www.w3.org/2000/svg">
<path d="M19.517 6.6935C19.4166 6.31524 19.2185 5.97001 18.9426 5.69239C18.6668 5.41477 18.3228 5.2145 17.9452 5.11164C16.5589 4.73764 10.9999 4.73764 10.9999 4.73764C10.9999 4.73764 5.44097 4.73764 4.05466 5.11164C3.67705 5.2145 3.33309 5.41477 3.05724 5.69239C2.78139 5.97001 2.58332 6.31524 2.48288 6.6935C2.11133 8.08867 2.11133 11 2.11133 11C2.11133 11 2.11133 13.9113 2.48288 15.3068C2.58332 15.6851 2.78139 16.0303 3.05724 16.3079C3.33309 16.5855 3.67705 16.7858 4.05466 16.8887C5.44097 17.2624 10.9999 17.2624 10.9999 17.2624C10.9999 17.2624 16.5589 17.2624 17.9452 16.8887C18.3228 16.7858 18.6668 16.5855 18.9426 16.3079C19.2185 16.0303 19.4166 15.6851 19.517 15.3068C19.8886 13.9113 19.8885 11 19.8885 11C19.8885 11 19.8886 8.08867 19.517 6.6935Z" fill="#EA5A47"/>
<path d="M9.18164 13.643L13.8279 11L9.18164 8.35693V13.643Z" fill="white"/>
<path d="M19.517 6.6935C19.4166 6.31524 19.2185 5.97001 18.9426 5.69239C18.6668 5.41477 18.3228 5.2145 17.9452 5.11164C16.5589 4.73764 10.9999 4.73764 10.9999 4.73764C10.9999 4.73764 5.44097 4.73764 4.05466 5.11164C3.67705 5.2145 3.33309 5.41477 3.05724 5.69239C2.78139 5.97001 2.58332 6.31524 2.48288 6.6935C2.11133 8.08867 2.11133 11 2.11133 11C2.11133 11 2.11133 13.9113 2.48288 15.3068C2.58332 15.6851 2.78139 16.0303 3.05724 16.3079C3.33309 16.5855 3.67705 16.7858 4.05466 16.8887C5.44097 17.2624 10.9999 17.2624 10.9999 17.2624C10.9999 17.2624 16.5589 17.2624 17.9452 16.8887C18.3228 16.7858 18.6668 16.5855 18.9426 16.3079C19.2185 16.0303 19.4166 15.6851 19.517 15.3068C19.8886 13.9113 19.8885 11 19.8885 11C19.8885 11 19.8886 8.08867 19.517 6.6935Z" stroke="black" stroke-width="0.5" stroke-miterlimit="10"/>
<path d="M9.18164 13.643L13.8279 11L9.18164 8.35693V13.643Z" stroke="black" stroke-width="0.5" stroke-miterlimit="10" stroke-linecap="round" stroke-linejoin="round"/>
<g clip-path="url(#clip0_346_1469)">
<path d="M27.0005 21.0833C32.5674 21.0833 37.0811 16.5696 37.0811 11.0027C37.0811 5.43582 32.5674 0.92215 27.0005 0.92215C21.4336 0.92215 16.9199 5.43582 16.9199 11.0027C16.9199 16.5696 21.4336 21.0833 27.0005 21.0833Z" fill="#FF808C"/>
<path fill-rule="evenodd" clip-rule="evenodd" d="M27.0005 4.85374C29.3325 4.85443 31.5922 5.6634 33.3948 7.1429C35.1973 8.6224 36.4314 10.681 36.8868 12.9681C37.1781 11.506 37.1415 9.99748 36.7796 8.55124C36.4177 7.105 35.7395 5.75703 34.7939 4.60445C33.8484 3.45187 32.6589 2.52338 31.3112 1.88586C29.9636 1.24834 28.4913 0.917664 27.0005 0.917664C25.5097 0.917664 24.0374 1.24834 22.6898 1.88586C21.3421 2.52338 20.1527 3.45187 19.2071 4.60445C18.2615 5.75703 17.5833 7.105 17.2214 8.55124C16.8595 9.99748 16.8229 11.506 17.1143 12.9681C17.5696 10.681 18.8037 8.6224 20.6063 7.1429C22.4088 5.6634 24.6685 4.85443 27.0005 4.85374Z" fill="#FFBFC5"/>
<path d="M27.0005 21.0833C32.5674 21.0833 37.0811 16.5696 37.0811 11.0027C37.0811 5.43582 32.5674 0.92215 27.0005 0.92215C21.4336 0.92215 16.9199 5.43582 16.9199 11.0027C16.9199 16.5696 21.4336 21.0833 27.0005 21.0833Z" stroke="#191919" stroke-linecap="round" stroke-linejoin="round"/>
<path d="M22.1953 2.13858C24.7802 4.09965 26.8758 6.63275 28.3178 9.53933C29.7598 12.4459 30.509 15.647 30.5067 18.8916C30.5067 19.4263 30.4872 19.9552 30.4481 20.4783" stroke="#191919" stroke-linecap="round" stroke-linejoin="round"/>
<path d="M34.5273 4.29642C30.616 8.04437 25.4061 10.1336 19.989 10.1264C18.9819 10.1264 17.979 10.0555 16.9805 9.91375M19.164 17.3415C23.0785 13.5669 28.3065 11.461 33.7445 11.4684C34.8549 11.4751 35.9591 11.5558 37.0573 11.7104" stroke="#191919" stroke-linecap="round" stroke-linejoin="round"/>
</g>
<g clip-path="url(#clip1_346_1469)">
<path d="M43.0011 1.19165C35.2562 1.18524 30.408 9.56449 34.2745 16.2754C35.5063 18.4127 37.4802 20.0232 39.8212 20.801C40.3235 20.889 40.4821 20.5938 40.4821 20.328C40.4821 20.0878 40.4876 19.4205 40.4821 18.5781C37.6826 19.1858 37.1051 17.2526 37.1051 17.2526C36.9208 16.6445 36.5247 16.1225 35.9886 15.7813C35.0747 15.1571 36.0565 15.169 36.0565 15.169C36.3755 15.2124 36.6803 15.3284 36.9476 15.508C37.2149 15.6875 37.4374 15.9259 37.5983 16.2048C37.7345 16.453 37.9185 16.6717 38.1398 16.8482C38.3611 17.0248 38.6151 17.1557 38.8873 17.2335C39.1595 17.3112 39.4444 17.3342 39.7256 17.3011C40.0067 17.2681 40.2785 17.1796 40.5252 17.0408C40.5719 16.5323 40.7984 16.0571 41.1641 15.7007C38.9302 15.4458 36.5808 14.5823 36.5808 10.7268C36.5672 9.72683 36.9388 8.75993 37.6185 8.02632C37.3108 7.1589 37.3459 6.20674 37.7165 5.36432C38.0869 4.5219 38.5626 5.0939 40.4821 6.39649C42.1321 5.94457 43.8729 5.94457 45.522 6.39649C47.447 5.09482 48.2857 5.36432 48.2857 5.36432C48.657 6.20651 48.6927 7.15867 48.3856 8.02632C49.0656 8.76031 49.4362 9.72825 49.4205 10.7287C49.4205 14.5952 47.0675 15.4449 44.8262 15.6924C45.3139 16.1819 45.5641 16.8584 45.5146 17.5468V20.3326C45.5146 20.6012 45.6778 20.8982 46.1884 20.801C53.5391 18.3608 55.4907 8.87882 49.702 3.73265C47.8556 2.09256 45.4707 1.18852 43.0011 1.19257" fill="#808080"/>
<path d="M37.5339 5.94824C37.582 5.74974 37.6432 5.55466 37.7173 5.36433C37.9675 5.32308 38.2223 5.34049 38.4653 5.41566C39.8705 4.69936 41.4254 4.32593 43.0028 4.32593C44.5801 4.32593 46.135 4.69936 47.5403 5.41566C47.7813 5.34049 48.0371 5.32216 48.2864 5.36341C48.3604 5.55347 48.4215 5.7481 48.4698 5.94733C49.6588 6.71944 50.671 7.73448 51.4398 8.92572C52.2086 10.117 52.7165 11.4574 52.9303 12.859C54.165 5.21216 46.6603 -0.902924 39.4213 1.85166C37.2573 2.67478 35.4434 4.21915 34.2856 6.22423C33.1278 8.2293 32.6971 10.5723 33.0661 12.8581C33.281 11.4564 33.7903 10.1161 34.5603 8.92528C35.3304 7.7345 36.3438 6.71931 37.5339 5.94824Z" fill="#B2B2B2"/>
<path d="M43.0011 1.19165C35.2562 1.18524 30.408 9.56449 34.2745 16.2754C35.5063 18.4127 37.4802 20.0232 39.8212 20.801C40.3235 20.889 40.4821 20.5938 40.4821 20.328C40.4821 20.0878 40.4876 19.4205 40.4821 18.5781C37.6826 19.1858 37.1051 17.2526 37.1051 17.2526C36.9208 16.6445 36.5247 16.1225 35.9886 15.7813C35.0747 15.1571 36.0565 15.169 36.0565 15.169C36.3755 15.2124 36.6803 15.3284 36.9476 15.508C37.2149 15.6875 37.4374 15.9259 37.5983 16.2048C37.7345 16.453 37.9185 16.6717 38.1398 16.8482C38.3611 17.0248 38.6151 17.1557 38.8873 17.2335C39.1595 17.3112 39.4444 17.3342 39.7256 17.3011C40.0067 17.2681 40.2785 17.1796 40.5252 17.0408C40.5719 16.5323 40.7984 16.0571 41.1641 15.7007C38.9302 15.4458 36.5808 14.5823 36.5808 10.7268C36.5672 9.72683 36.9388 8.75993 37.6185 8.02632C37.3108 7.1589 37.3459 6.20674 37.7165 5.36432C38.0869 4.5219 38.5626 5.0939 40.4821 6.39649C42.1321 5.94457 43.8729 5.94457 45.522 6.39649C47.447 5.09482 48.2857 5.36432 48.2857 5.36432C48.657 6.20651 48.6927 7.15867 48.3856 8.02632C49.0656 8.76031 49.4362 9.72825 49.4205 10.7287C49.4205 14.5952 47.0675 15.4449 44.8262 15.6924C45.3139 16.1819 45.5641 16.8584 45.5146 17.5468V20.3326C45.5146 20.6012 45.6778 20.8982 46.1884 20.801C53.5391 18.3608 55.4907 8.87882 49.702 3.73265C47.8556 2.09256 45.4707 1.18852 43.0011 1.19257" stroke="#191919" stroke-linecap="round" stroke-linejoin="round"/>
</g>
<path d="M65.7224 3.36111H52.278C51.7717 3.36111 51.3613 3.77152 51.3613 4.27778V17.7222C51.3613 18.2285 51.7717 18.6389 52.278 18.6389H65.7224C66.2287 18.6389 66.6391 18.2285 66.6391 17.7222V4.27778C66.6391 3.77152 66.2287 3.36111 65.7224 3.36111Z" fill="#61B2E4"/>
<path d="M54.1113 9.16666H55.9447V15.5833H54.1113V9.16666Z" fill="white"/>
<path d="M55.0284 7.79166C55.6191 7.79166 56.0979 7.31285 56.0979 6.72222C56.0979 6.13158 55.6191 5.65277 55.0284 5.65277C54.4378 5.65277 53.959 6.13158 53.959 6.72222C53.959 7.31285 54.4378 7.79166 55.0284 7.79166Z" fill="white"/>
<path d="M60.9852 10.6944C60.3103 10.6944 59.763 11.0513 59.763 12.0694V15.5833H57.9297V9.16667H59.763V9.84194H59.7624C59.9916 9.58137 60.2737 9.37271 60.59 9.22991C60.9062 9.08711 61.2493 9.01347 61.5964 9.01389C62.9463 9.01389 64.0408 10.0222 64.0408 11.7639V15.5833H62.2075V12.0694C62.2075 11.0513 61.6605 10.6944 60.9852 10.6944Z" fill="white"/>
<path d="M65.7224 3.36111H52.278C51.7717 3.36111 51.3613 3.77152 51.3613 4.27778V17.7222C51.3613 18.2285 51.7717 18.6389 52.278 18.6389H65.7224C66.2287 18.6389 66.6391 18.2285 66.6391 17.7222V4.27778C66.6391 3.77152 66.2287 3.36111 65.7224 3.36111Z" stroke="black" stroke-width="0.5" stroke-miterlimit="10"/>
<path d="M54.1113 9.16666H55.9447V15.5833H54.1113V9.16666Z" stroke="black" stroke-width="0.5" stroke-linecap="round" stroke-linejoin="round"/>
<path d="M55.0284 7.79166C55.6191 7.79166 56.0979 7.31285 56.0979 6.72222C56.0979 6.13158 55.6191 5.65277 55.0284 5.65277C54.4378 5.65277 53.959 6.13158 53.959 6.72222C53.959 7.31285 54.4378 7.79166 55.0284 7.79166Z" stroke="black" stroke-width="0.5" stroke-linecap="round" stroke-linejoin="round"/>
<path d="M60.9872 10.6944C60.3122 10.6944 59.765 11.0513 59.765 12.0694V15.5833H57.9316V9.16667H59.765V9.84194H59.7644C59.9935 9.58137 60.2757 9.37271 60.5919 9.22991C60.9082 9.08711 61.2513 9.01347 61.5983 9.01389C62.9483 9.01389 64.0428 10.0222 64.0428 11.7639V15.5833H62.2094V12.0694C62.2094 11.0513 61.6625 10.6944 60.9872 10.6944Z" stroke="black" stroke-width="0.5" stroke-linecap="round" stroke-linejoin="round"/>
<g clip-path="url(#clip2_346_1469)">
<path d="M79.821 0.916656H70.1777C68.7822 0.916656 67.4439 1.47101 66.4571 2.45776C65.4704 3.44452 64.916 4.78284 64.916 6.17832V15.8217C64.916 17.2171 65.4704 18.5555 66.4571 19.5422C67.4439 20.529 68.7822 21.0833 70.1777 21.0833H79.821C81.2165 21.0833 82.5548 20.529 83.5416 19.5422C84.5283 18.5555 85.0827 17.2171 85.0827 15.8217V6.17832C85.0827 4.78284 84.5283 3.44452 83.5416 2.45776C82.5548 1.47101 81.2165 0.916656 79.821 0.916656Z" fill="#FFBFC5"/>
<path d="M83.4885 2.40717L66.4082 19.4902C66.8976 19.9948 67.4835 20.396 68.131 20.6697C68.7786 20.9433 69.4745 21.084 70.1775 21.0833H79.8227C81.218 21.0831 82.5561 20.5286 83.5427 19.5419C84.5292 18.5552 85.0835 17.217 85.0835 15.8217V6.17833C85.0842 5.47489 84.9433 4.7785 84.6693 4.13062C84.3953 3.48274 83.9937 2.89662 83.4885 2.40717Z" fill="#FF808C"/>
<path d="M79.821 0.916656H70.1777C68.7822 0.916656 67.4439 1.47101 66.4571 2.45776C65.4704 3.44452 64.916 4.78284 64.916 6.17832V15.8217C64.916 17.2171 65.4704 18.5555 66.4571 19.5422C67.4439 20.529 68.7822 21.0833 70.1777 21.0833H79.821C81.2165 21.0833 82.5548 20.529 83.5416 19.5422C84.5283 18.5555 85.0827 17.2171 85.0827 15.8217V6.17832C85.0827 4.78284 84.5283 3.44452 83.5416 2.45776C82.5548 1.47101 81.2165 0.916656 79.821 0.916656Z" stroke="#191919" stroke-linecap="round" stroke-linejoin="round"/>
<path d="M74.9999 16.2617C75.6908 16.2617 76.3748 16.1256 77.0131 15.8612C77.6514 15.5968 78.2313 15.2093 78.7198 14.7208C79.2083 14.2323 79.5958 13.6524 79.8602 13.0141C80.1246 12.3758 80.2607 11.6918 80.2607 11.0009C80.2607 10.3101 80.1246 9.62597 79.8602 8.9877C79.5958 8.34944 79.2083 7.7695 78.7198 7.28099C78.2313 6.79249 77.6514 6.40498 77.0131 6.1406C76.3748 5.87623 75.6908 5.74015 74.9999 5.74015C73.6168 5.75841 72.2966 6.32065 71.325 7.30517C70.3534 8.28968 69.8086 9.61724 69.8086 11.0004C69.8086 12.3837 70.3534 13.7112 71.325 14.6957C72.2966 15.6802 73.6168 16.2434 74.9999 16.2617ZM81.1379 6.17832C81.4869 6.17832 81.8216 6.03968 82.0684 5.79291C82.3151 5.54613 82.4538 5.21144 82.4538 4.86244C82.4538 4.51345 82.3151 4.17876 82.0684 3.93198C81.8216 3.68521 81.4869 3.54657 81.1379 3.54657C80.789 3.54657 80.4545 3.68516 80.2078 3.93185C79.9611 4.17854 79.8225 4.51312 79.8225 4.86199C79.8225 5.21086 79.9611 5.54544 80.2078 5.79213C80.4545 6.03882 80.789 6.17832 81.1379 6.17832Z" fill="white" stroke="#191919" stroke-linecap="round" stroke-linejoin="round"/>
</g>
<defs>
<clipPath id="clip0_346_1469">
<rect width="22" height="22" fill="white" transform="translate(16)"/>
</clipPath>
<clipPath id="clip1_346_1469">
<rect width="22" height="22" fill="white" transform="translate(32)"/>
</clipPath>
<clipPath id="clip2_346_1469">
<rect width="22" height="22" fill="white" transform="translate(64)"/>
</clipPath>
</defs>
</svg>
